<svg width="200" height="200" viewBox="0 0 200 200" fill="none" xmlns="http://www.w3.org/2000/svg">
<path d="M129.196 57.0711C133.101 53.1658 139.433 53.1658 143.338 57.0711C147.243 60.9763 147.243 67.308 143.338 71.2132L81.1127 133.439C80.3317 134.22 79.0653 134.22 78.2843 133.439L66.9706 122.125C66.1895 121.344 66.1895 120.078 66.9706 119.296L129.196 57.0711Z" fill="#FEEBC8"/>
<path d="M59.4455 142.284C58.6088 142.655 57.7541 141.8 58.1257 140.964L66.2661 122.636C66.551 121.994 67.3908 121.838 67.8871 122.334L78.0749 132.522C78.5712 133.018 78.4151 133.858 77.7737 134.143L59.4455 142.284Z" fill="#9D9D9D"/>
<path d="M129.196 57.0711C133.101 53.1658 139.433 53.1658 143.338 57.0711C147.243 60.9763 147.243 67.308 143.338 71.2132L129.196 85.3553L115.054 71.2132L129.196 57.0711Z" fill="#FFC6C6"/>
</svg>
