<svg width="144" height="144" viewBox="0 0 144 144" fill="none" xmlns="http://www.w3.org/2000/svg">
<path d="M101.196 29.0711C105.101 25.1658 111.433 25.1658 115.338 29.0711C119.243 32.9763 119.243 39.308 115.338 43.2132L53.1127 105.439C52.3316 106.22 51.0653 106.22 50.2843 105.439L38.9706 94.1249C38.1895 93.3438 38.1895 92.0775 38.9706 91.2965L101.196 29.0711Z" fill="#FEEBC8"/>
<path d="M31.4455 114.284C30.6088 114.655 29.7541 113.8 30.1257 112.964L38.2661 94.6355C38.551 93.994 39.3908 93.838 39.8871 94.3343L50.0749 104.522C50.5712 105.018 50.4151 105.858 49.7737 106.143L31.4455 114.284Z" fill="#9D9D9D"/>
<path d="M101.196 29.0711C105.101 25.1658 111.433 25.1658 115.338 29.0711C119.243 32.9763 119.243 39.308 115.338 43.2132L101.196 57.3553L87.0538 43.2132L101.196 29.0711Z" fill="#FFC6C6"/>
</svg>
